<mxfile host="65bd71144e">
    <diagram id="g02BRPA6Tgmq035kTPiS" name="load balancer">
        <mxGraphModel dx="683" dy="495" grid="1" gridSize="10" guides="1" tooltips="1" connect="1" arrows="1" fold="1" page="1" pageScale="1" pageWidth="850" pageHeight="1100" background="#ffffff" math="0" shadow="0">
            <root>
                <mxCell id="0"/>
                <mxCell id="1" parent="0"/>
                <mxCell id="G6R6f9QxZNKXhiexXZov-1" style="edgeStyle=none;html=1;entryX=-0.016;entryY=0.299;entryDx=0;entryDy=0;entryPerimeter=0;strokeColor=#000000;" edge="1" parent="1" source="G6R6f9QxZNKXhiexXZov-3" target="G6R6f9QxZNKXhiexXZov-5">
                    <mxGeometry relative="1" as="geometry">
                        <mxPoint x="590" y="80" as="targetPoint"/>
                    </mxGeometry>
                </mxCell>
                <mxCell id="reb1Rbn4UalXU8L2Oevo-19" style="edgeStyle=none;html=1;exitX=0.5;exitY=1;exitDx=0;exitDy=0;strokeColor=#000000;fontColor=#000000;" edge="1" parent="1" source="G6R6f9QxZNKXhiexXZov-3" target="reb1Rbn4UalXU8L2Oevo-18">
                    <mxGeometry relative="1" as="geometry"/>
                </mxCell>
                <mxCell id="G6R6f9QxZNKXhiexXZov-3" value="USER&lt;br&gt;Browser/App" style="shape=ext;double=1;rounded=1;whiteSpace=wrap;html=1;strokeColor=#000000;fontColor=#000000;" vertex="1" parent="1">
                    <mxGeometry x="340" y="30" width="145" height="104" as="geometry"/>
                </mxCell>
                <mxCell id="reb1Rbn4UalXU8L2Oevo-15" style="edgeStyle=none;html=1;entryX=0.007;entryY=-0.03;entryDx=0;entryDy=0;entryPerimeter=0;strokeColor=#000000;fontColor=#000000;" edge="1" parent="1" source="G6R6f9QxZNKXhiexXZov-5" target="G6R6f9QxZNKXhiexXZov-7">
                    <mxGeometry relative="1" as="geometry"/>
                </mxCell>
                <mxCell id="G6R6f9QxZNKXhiexXZov-5" value="" style="aspect=fixed;html=1;points=[];align=center;image;fontSize=12;image=img/lib/azure2/networking/DNS_Zones.svg;" vertex="1" parent="1">
                    <mxGeometry x="702" y="60" width="84" height="84" as="geometry"/>
                </mxCell>
                <mxCell id="G6R6f9QxZNKXhiexXZov-6" value="Domain&lt;br&gt;www.mywebsite.com" style="text;html=1;align=center;verticalAlign=middle;resizable=0;points=[];autosize=1;strokeColor=#000000;fillColor=none;fontColor=#000000;" vertex="1" parent="1">
                    <mxGeometry x="615" y="165" width="130" height="40" as="geometry"/>
                </mxCell>
                <mxCell id="G6R6f9QxZNKXhiexXZov-7" value="ip address&lt;br&gt;88.88.88.1" style="text;html=1;align=center;verticalAlign=middle;resizable=0;points=[];autosize=1;strokeColor=#000000;fillColor=none;fontColor=#000000;" vertex="1" parent="1">
                    <mxGeometry x="745" y="165" width="80" height="40" as="geometry"/>
                </mxCell>
                <mxCell id="1jpWYitVatGgR0zU-9jq-4" style="edgeStyle=none;html=1;exitX=0.25;exitY=1;exitDx=0;exitDy=0;entryX=0.5;entryY=0;entryDx=0;entryDy=0;entryPerimeter=0;strokeColor=#000000;fontColor=#000000;" edge="1" parent="1" source="G6R6f9QxZNKXhiexXZov-10" target="1jpWYitVatGgR0zU-9jq-2">
                    <mxGeometry relative="1" as="geometry"/>
                </mxCell>
                <mxCell id="1jpWYitVatGgR0zU-9jq-6" style="edgeStyle=none;html=1;exitX=0.25;exitY=1;exitDx=0;exitDy=0;entryX=0.311;entryY=-0.008;entryDx=0;entryDy=0;entryPerimeter=0;strokeColor=#000000;fontColor=#000000;" edge="1" parent="1" source="G6R6f9QxZNKXhiexXZov-10" target="1jpWYitVatGgR0zU-9jq-3">
                    <mxGeometry relative="1" as="geometry"/>
                </mxCell>
                <mxCell id="1jpWYitVatGgR0zU-9jq-7" style="edgeStyle=none;html=1;exitX=0.75;exitY=1;exitDx=0;exitDy=0;entryX=0.375;entryY=-0.032;entryDx=0;entryDy=0;entryPerimeter=0;strokeColor=#000000;fontColor=#000000;" edge="1" parent="1" source="G6R6f9QxZNKXhiexXZov-10" target="1jpWYitVatGgR0zU-9jq-3">
                    <mxGeometry relative="1" as="geometry"/>
                </mxCell>
                <mxCell id="G6R6f9QxZNKXhiexXZov-10" value="" style="rounded=1;whiteSpace=wrap;html=1;" vertex="1" parent="1">
                    <mxGeometry x="230" y="310" width="390" height="170" as="geometry"/>
                </mxCell>
                <mxCell id="G6R6f9QxZNKXhiexXZov-11" value="" style="fontColor=#0066CC;verticalAlign=top;verticalLabelPosition=bottom;labelPosition=center;align=center;html=1;outlineConnect=0;fillColor=#CCCCCC;strokeColor=#6881B3;gradientColor=none;gradientDirection=north;strokeWidth=2;shape=mxgraph.networks.web_server;" vertex="1" parent="1">
                    <mxGeometry x="285" y="335" width="105" height="105" as="geometry"/>
                </mxCell>
                <mxCell id="G6R6f9QxZNKXhiexXZov-14" value="server 1" style="text;html=1;align=center;verticalAlign=middle;resizable=0;points=[];autosize=1;strokeColor=none;fillColor=none;" vertex="1" parent="1">
                    <mxGeometry x="300" y="440" width="70" height="30" as="geometry"/>
                </mxCell>
                <mxCell id="reb1Rbn4UalXU8L2Oevo-16" value="" style="fontColor=#0066CC;verticalAlign=top;verticalLabelPosition=bottom;labelPosition=center;align=center;html=1;outlineConnect=0;fillColor=#CCCCCC;strokeColor=#6881B3;gradientColor=none;gradientDirection=north;strokeWidth=2;shape=mxgraph.networks.web_server;" vertex="1" parent="1">
                    <mxGeometry x="490" y="335" width="105" height="105" as="geometry"/>
                </mxCell>
                <mxCell id="1jpWYitVatGgR0zU-9jq-5" style="edgeStyle=none;html=1;entryX=0.736;entryY=-0.02;entryDx=0;entryDy=0;entryPerimeter=0;strokeColor=#000000;fontColor=#000000;" edge="1" parent="1" source="reb1Rbn4UalXU8L2Oevo-17" target="1jpWYitVatGgR0zU-9jq-2">
                    <mxGeometry relative="1" as="geometry"/>
                </mxCell>
                <mxCell id="reb1Rbn4UalXU8L2Oevo-17" value="server 2" style="text;html=1;align=center;verticalAlign=middle;resizable=0;points=[];autosize=1;strokeColor=none;fillColor=none;" vertex="1" parent="1">
                    <mxGeometry x="500" y="440" width="70" height="30" as="geometry"/>
                </mxCell>
                <mxCell id="reb1Rbn4UalXU8L2Oevo-22" style="edgeStyle=none;html=1;strokeColor=#000000;fontColor=#FFFFFF;" edge="1" parent="1" source="reb1Rbn4UalXU8L2Oevo-18">
                    <mxGeometry relative="1" as="geometry">
                        <mxPoint x="330" y="300" as="targetPoint"/>
                    </mxGeometry>
                </mxCell>
                <mxCell id="reb1Rbn4UalXU8L2Oevo-24" style="edgeStyle=none;html=1;strokeColor=#000000;fontColor=#FFFFFF;" edge="1" parent="1" source="reb1Rbn4UalXU8L2Oevo-18">
                    <mxGeometry relative="1" as="geometry">
                        <mxPoint x="500" y="300" as="targetPoint"/>
                    </mxGeometry>
                </mxCell>
                <mxCell id="reb1Rbn4UalXU8L2Oevo-18" value="" style="verticalLabelPosition=bottom;html=1;verticalAlign=top;align=center;strokeColor=#001DBC;fillColor=#0050ef;shape=mxgraph.azure.load_balancer_generic;pointerEvents=1;fontColor=#ffffff;" vertex="1" parent="1">
                    <mxGeometry x="387.5" y="205" width="50" height="50" as="geometry"/>
                </mxCell>
                <mxCell id="reb1Rbn4UalXU8L2Oevo-20" value="load&amp;nbsp;&lt;br&gt;balancer" style="text;html=1;align=center;verticalAlign=middle;resizable=0;points=[];autosize=1;strokeColor=none;fillColor=none;fontColor=#000000;" vertex="1" parent="1">
                    <mxGeometry x="437.5" y="205" width="70" height="40" as="geometry"/>
                </mxCell>
                <mxCell id="reb1Rbn4UalXU8L2Oevo-21" value="Public ip - 88.88.88.1" style="text;html=1;align=center;verticalAlign=middle;resizable=0;points=[];autosize=1;strokeColor=none;fillColor=none;fontColor=#000000;" vertex="1" parent="1">
                    <mxGeometry x="342.5" y="144" width="140" height="30" as="geometry"/>
                </mxCell>
                <mxCell id="reb1Rbn4UalXU8L2Oevo-25" value="&lt;font color=&quot;#000000&quot;&gt;private ip&lt;br&gt;10.4.0.1&lt;/font&gt;" style="text;html=1;align=center;verticalAlign=middle;resizable=0;points=[];autosize=1;strokeColor=none;fillColor=none;fontColor=#FFFFFF;" vertex="1" parent="1">
                    <mxGeometry x="285" y="240" width="70" height="40" as="geometry"/>
                </mxCell>
                <mxCell id="reb1Rbn4UalXU8L2Oevo-26" value="&lt;font color=&quot;#000000&quot;&gt;private ip&lt;br&gt;10.4.0.1&lt;/font&gt;" style="text;html=1;align=center;verticalAlign=middle;resizable=0;points=[];autosize=1;strokeColor=none;fillColor=none;fontColor=#FFFFFF;" vertex="1" parent="1">
                    <mxGeometry x="477.5" y="245" width="70" height="40" as="geometry"/>
                </mxCell>
                <mxCell id="1jpWYitVatGgR0zU-9jq-1" value="&lt;b&gt;&lt;font style=&quot;font-size: 15px;&quot;&gt;web tier&lt;/font&gt;&lt;/b&gt;" style="text;html=1;align=center;verticalAlign=middle;resizable=0;points=[];autosize=1;strokeColor=none;fillColor=none;fontColor=#000000;" vertex="1" parent="1">
                    <mxGeometry x="170" y="285" width="80" height="30" as="geometry"/>
                </mxCell>
                <mxCell id="1jpWYitVatGgR0zU-9jq-16" style="edgeStyle=none;html=1;entryX=0;entryY=0.5;entryDx=0;entryDy=0;entryPerimeter=0;strokeColor=#000000;fontSize=15;fontColor=#000000;" edge="1" parent="1" source="1jpWYitVatGgR0zU-9jq-2" target="1jpWYitVatGgR0zU-9jq-3">
                    <mxGeometry relative="1" as="geometry"/>
                </mxCell>
                <mxCell id="1jpWYitVatGgR0zU-9jq-2" value="Master&lt;br&gt;DB" style="shape=cylinder3;whiteSpace=wrap;html=1;boundedLbl=1;backgroundOutline=1;size=15;strokeColor=#006EAF;fontColor=#ffffff;fillColor=#1ba1e2;" vertex="1" parent="1">
                    <mxGeometry x="305" y="560" width="60" height="80" as="geometry"/>
                </mxCell>
                <mxCell id="1jpWYitVatGgR0zU-9jq-3" value="Slave&lt;br&gt;DB" style="shape=cylinder3;whiteSpace=wrap;html=1;boundedLbl=1;backgroundOutline=1;size=15;strokeColor=#006EAF;fontColor=#ffffff;fillColor=#1ba1e2;" vertex="1" parent="1">
                    <mxGeometry x="510" y="560" width="60" height="80" as="geometry"/>
                </mxCell>
                <mxCell id="1jpWYitVatGgR0zU-9jq-8" value="Write" style="text;html=1;align=center;verticalAlign=middle;resizable=0;points=[];autosize=1;strokeColor=none;fillColor=none;fontColor=#000000;" vertex="1" parent="1">
                    <mxGeometry x="280" y="515" width="50" height="30" as="geometry"/>
                </mxCell>
                <mxCell id="1jpWYitVatGgR0zU-9jq-9" value="Write" style="text;html=1;align=center;verticalAlign=middle;resizable=0;points=[];autosize=1;strokeColor=none;fillColor=none;fontColor=#000000;" vertex="1" parent="1">
                    <mxGeometry x="450" y="485" width="50" height="30" as="geometry"/>
                </mxCell>
                <mxCell id="1jpWYitVatGgR0zU-9jq-12" value="Read" style="text;html=1;align=center;verticalAlign=middle;resizable=0;points=[];autosize=1;strokeColor=none;fillColor=none;fontColor=#000000;" vertex="1" parent="1">
                    <mxGeometry x="530" y="505" width="50" height="30" as="geometry"/>
                </mxCell>
                <mxCell id="1jpWYitVatGgR0zU-9jq-13" value="Read" style="text;html=1;align=center;verticalAlign=middle;resizable=0;points=[];autosize=1;strokeColor=none;fillColor=none;fontColor=#000000;" vertex="1" parent="1">
                    <mxGeometry x="435" y="525" width="50" height="30" as="geometry"/>
                </mxCell>
                <mxCell id="1jpWYitVatGgR0zU-9jq-15" value="&lt;b&gt;data tier&lt;/b&gt;" style="text;html=1;align=center;verticalAlign=middle;resizable=0;points=[];autosize=1;strokeColor=none;fillColor=none;fontSize=15;fontColor=#000000;" vertex="1" parent="1">
                    <mxGeometry x="180" y="545" width="80" height="30" as="geometry"/>
                </mxCell>
                <mxCell id="1jpWYitVatGgR0zU-9jq-17" value="&lt;font style=&quot;font-size: 12px;&quot;&gt;Replicate&lt;/font&gt;" style="text;html=1;align=center;verticalAlign=middle;resizable=0;points=[];autosize=1;strokeColor=none;fillColor=none;fontSize=15;fontColor=#000000;" vertex="1" parent="1">
                    <mxGeometry x="400" y="600" width="70" height="30" as="geometry"/>
                </mxCell>
            </root>
        </mxGraphModel>
    </diagram>
    <diagram id="xMAhe-VE_KPB43FbIN-q" name="single-server-setup">
        <mxGraphModel dx="724" dy="495" grid="1" gridSize="10" guides="1" tooltips="1" connect="1" arrows="1" fold="1" page="1" pageScale="1" pageWidth="850" pageHeight="1100" background="#ffffff" math="0" shadow="0">
            <root>
                <mxCell id="0"/>
                <mxCell id="1" parent="0"/>
                <mxCell id="4" style="edgeStyle=none;html=1;entryX=-0.016;entryY=0.299;entryDx=0;entryDy=0;entryPerimeter=0;strokeColor=#000000;" parent="1" source="2" target="3" edge="1">
                    <mxGeometry relative="1" as="geometry">
                        <mxPoint x="590" y="80" as="targetPoint"/>
                    </mxGeometry>
                </mxCell>
                <mxCell id="11" style="edgeStyle=none;html=1;exitX=0.25;exitY=1;exitDx=0;exitDy=0;entryX=0.354;entryY=-0.018;entryDx=0;entryDy=0;entryPerimeter=0;fontColor=#000000;strokeColor=#000000;" parent="1" source="2" target="9" edge="1">
                    <mxGeometry relative="1" as="geometry"/>
                </mxCell>
                <mxCell id="2" value="USER&lt;br&gt;Browser/App" style="shape=ext;double=1;rounded=1;whiteSpace=wrap;html=1;strokeColor=#000000;fontColor=#000000;" parent="1" vertex="1">
                    <mxGeometry x="340" y="30" width="145" height="104" as="geometry"/>
                </mxCell>
                <mxCell id="5" style="edgeStyle=none;html=1;strokeColor=#000000;" parent="1" source="3" edge="1">
                    <mxGeometry relative="1" as="geometry">
                        <mxPoint x="490" y="100" as="targetPoint"/>
                    </mxGeometry>
                </mxCell>
                <mxCell id="3" value="" style="aspect=fixed;html=1;points=[];align=center;image;fontSize=12;image=img/lib/azure2/networking/DNS_Zones.svg;" parent="1" vertex="1">
                    <mxGeometry x="600" y="56" width="84" height="84" as="geometry"/>
                </mxCell>
                <mxCell id="6" value="(1) search for the site&lt;br&gt;api.mysite.com" style="text;html=1;align=center;verticalAlign=middle;resizable=0;points=[];autosize=1;strokeColor=none;fillColor=none;fontColor=#000000;" parent="1" vertex="1">
                    <mxGeometry x="475" y="40" width="140" height="40" as="geometry"/>
                </mxCell>
                <mxCell id="7" value="(2) get the ip &lt;br&gt;address back&lt;br&gt;ex - 15.125.18.214" style="text;html=1;align=center;verticalAlign=middle;resizable=0;points=[];autosize=1;strokeColor=none;fillColor=none;fontColor=#000000;" parent="1" vertex="1">
                    <mxGeometry x="485" y="100" width="120" height="60" as="geometry"/>
                </mxCell>
                <mxCell id="13" style="edgeStyle=none;html=1;strokeColor=#000000;" parent="1" source="9" edge="1">
                    <mxGeometry relative="1" as="geometry">
                        <mxPoint x="435" y="140" as="targetPoint"/>
                    </mxGeometry>
                </mxCell>
                <mxCell id="18" style="edgeStyle=none;html=1;exitX=1;exitY=0.25;exitDx=0;exitDy=0;strokeColor=#000000;fontColor=#000000;entryX=-0.026;entryY=0.221;entryDx=0;entryDy=0;entryPerimeter=0;" edge="1" parent="1" source="9" target="17">
                    <mxGeometry relative="1" as="geometry">
                        <mxPoint x="710" y="273" as="targetPoint"/>
                    </mxGeometry>
                </mxCell>
                <mxCell id="9" value="" style="rounded=1;whiteSpace=wrap;html=1;" parent="1" vertex="1">
                    <mxGeometry x="240" y="230" width="390" height="170" as="geometry"/>
                </mxCell>
                <mxCell id="8" value="" style="fontColor=#0066CC;verticalAlign=top;verticalLabelPosition=bottom;labelPosition=center;align=center;html=1;outlineConnect=0;fillColor=#CCCCCC;strokeColor=#6881B3;gradientColor=none;gradientDirection=north;strokeWidth=2;shape=mxgraph.networks.web_server;" parent="1" vertex="1">
                    <mxGeometry x="382.5" y="250" width="105" height="105" as="geometry"/>
                </mxCell>
                <mxCell id="12" value="(3) 15.125.18.214" style="text;html=1;align=center;verticalAlign=middle;resizable=0;points=[];autosize=1;strokeColor=none;fillColor=none;fontColor=#000000;" parent="1" vertex="1">
                    <mxGeometry x="260" y="165" width="120" height="30" as="geometry"/>
                </mxCell>
                <mxCell id="14" value="(4) HTML &lt;br&gt;pages" style="text;html=1;align=center;verticalAlign=middle;resizable=0;points=[];autosize=1;strokeColor=none;fillColor=none;fontColor=#000000;" parent="1" vertex="1">
                    <mxGeometry x="440" y="165" width="70" height="40" as="geometry"/>
                </mxCell>
                <mxCell id="15" value="Web server" style="text;html=1;align=center;verticalAlign=middle;resizable=0;points=[];autosize=1;strokeColor=none;fillColor=none;" parent="1" vertex="1">
                    <mxGeometry x="385" y="360" width="80" height="30" as="geometry"/>
                </mxCell>
                <mxCell id="19" style="edgeStyle=none;html=1;exitX=0;exitY=1;exitDx=0;exitDy=-15;exitPerimeter=0;strokeColor=#000000;fontColor=#000000;entryX=1;entryY=0.647;entryDx=0;entryDy=0;entryPerimeter=0;startArrow=none;" edge="1" parent="1" source="21" target="9">
                    <mxGeometry relative="1" as="geometry">
                        <mxPoint x="640" y="340" as="targetPoint"/>
                    </mxGeometry>
                </mxCell>
                <mxCell id="17" value="DB" style="shape=cylinder3;whiteSpace=wrap;html=1;boundedLbl=1;backgroundOutline=1;size=15;strokeColor=#006EAF;fontColor=#ffffff;fillColor=#1ba1e2;" vertex="1" parent="1">
                    <mxGeometry x="740" y="245" width="80" height="140" as="geometry"/>
                </mxCell>
                <mxCell id="20" value="Read/Write/&lt;br&gt;Update" style="text;html=1;align=center;verticalAlign=middle;resizable=0;points=[];autosize=1;strokeColor=none;fillColor=none;fontColor=#000000;" vertex="1" parent="1">
                    <mxGeometry x="630" y="240" width="90" height="40" as="geometry"/>
                </mxCell>
                <mxCell id="22" value="" style="edgeStyle=none;html=1;exitX=0;exitY=1;exitDx=0;exitDy=-15;exitPerimeter=0;strokeColor=#000000;fontColor=#000000;entryX=1;entryY=0.647;entryDx=0;entryDy=0;entryPerimeter=0;endArrow=none;" edge="1" parent="1" source="17" target="21">
                    <mxGeometry relative="1" as="geometry">
                        <mxPoint x="720" y="375" as="sourcePoint"/>
                        <mxPoint x="630" y="339.99" as="targetPoint"/>
                    </mxGeometry>
                </mxCell>
                <mxCell id="21" value="return data" style="text;html=1;align=center;verticalAlign=middle;resizable=0;points=[];autosize=1;strokeColor=none;fillColor=none;fontColor=#000000;" vertex="1" parent="1">
                    <mxGeometry x="650" y="330" width="80" height="30" as="geometry"/>
                </mxCell>
            </root>
        </mxGraphModel>
    </diagram>
</mxfile>